<svg width="55" height="33" viewBox="0 0 55 33" fill="none" xmlns="http://www.w3.org/2000/svg">
<path fill-rule="evenodd" clip-rule="evenodd" d="M45.6741 21.9254C42.8044 21.9254 40.493 24.233 40.493 27.0613C40.493 29.9056 42.8204 32.1973 45.6741 32.1973C48.5417 32.1973 50.8531 29.8897 50.8531 27.0613C50.8531 24.2171 48.5257 21.9254 45.6741 21.9254ZM7.31564 5.32997C7.57187 5.31938 7.75336 5.23576 7.85799 5.07698C8.14304 4.65463 7.75443 4.23652 7.48432 3.94119C6.71991 3.11026 4.8441 1.1086 4.46723 0.668254C4.18111 0.354933 3.77328 0.354933 3.48822 0.668254C3.09748 1.12024 1.12879 3.21187 0.400671 4.02164C0.148713 4.30321 -0.163032 4.68745 0.0996025 5.07698C0.206364 5.23576 0.386792 5.31938 0.64302 5.32997H2.14409V7.32421C2.14409 7.74339 2.48893 8.08635 2.91171 8.08635H5.04588C5.46866 8.08635 5.81457 7.74339 5.81457 7.32421V5.32997H7.31564ZM7.31564 14.5634C7.57187 14.5518 7.75336 14.4682 7.85799 14.3104C8.14304 13.887 7.75443 13.4689 7.48432 13.1746C6.71991 12.3426 4.8441 10.341 4.46723 9.90065C4.18111 9.58733 3.77328 9.58733 3.48822 9.90065C3.09748 10.3526 1.12879 12.4443 0.400671 13.254C0.148713 13.5356 -0.163032 13.9198 0.0996025 14.3104C0.206364 14.4682 0.386792 14.5518 0.64302 14.5634H2.14409V16.5577C2.14409 16.9758 2.48893 17.3187 2.91171 17.3187H5.04588C5.46866 17.3187 5.81457 16.9747 5.81457 16.5577V14.5634H7.31564ZM11.569 0.29248H19.7032C20.1303 0.29248 20.4804 0.638616 20.4804 1.06308V7.51475C20.4804 7.93816 20.1303 8.28429 19.7032 8.28429H11.569C11.142 8.28429 10.7929 7.93816 10.7929 7.51475V1.06308C10.7929 0.638616 11.142 0.29248 11.569 0.29248ZM23.1442 9.46771H31.2783C31.7054 9.46771 32.0556 9.81385 32.0556 10.2383V16.69C32.0556 17.1134 31.7054 17.4595 31.2783 17.4595H23.1442C22.7171 17.4595 22.368 17.1134 22.368 16.69V10.2383C22.368 9.81385 22.7171 9.46771 23.1442 9.46771ZM25.936 10.3431H28.4865V13.0159L27.2235 11.9584L25.936 13.0159V10.3431ZM23.1442 0.29248H31.2783C31.7054 0.29248 32.0556 0.638616 32.0556 1.06308V7.51475C32.0556 7.93816 31.7054 8.28429 31.2783 8.28429H23.1442C22.7171 8.28429 22.368 7.93816 22.368 7.51475V1.06308C22.368 0.638616 22.7171 0.29248 23.1442 0.29248ZM25.936 1.16682H28.4865V3.83957L27.2235 2.78211L25.936 3.83957V1.16682ZM11.569 9.46771H19.7032C20.1303 9.46771 20.4804 9.81385 20.4804 10.2383V16.69C20.4804 17.1134 20.1303 17.4595 19.7032 17.4595H11.569C11.142 17.4595 10.7929 17.1134 10.7929 16.69V10.2383C10.7929 9.81385 11.142 9.46771 11.569 9.46771ZM14.3598 10.3431H16.9114V13.0159L15.6484 11.9584L14.3598 13.0159V10.3431ZM14.3598 1.16682H16.9114V3.83957L15.6484 2.78211L14.3598 3.83957V1.16682ZM15.9911 22.3816C13.1213 22.3816 10.811 24.6892 10.811 27.5165C10.811 30.3618 13.1384 32.6524 15.9911 32.6524C18.8598 32.6524 21.1712 30.3459 21.1712 27.5165C21.1712 24.6733 18.8438 22.3816 15.9911 22.3816ZM15.9911 25.5413C14.8915 25.5413 13.9989 26.4262 13.9989 27.5165C13.9989 28.6078 14.8915 29.4917 15.9911 29.4917C17.0908 29.4917 17.9833 28.6078 17.9833 27.5165C17.9833 26.4262 17.0908 25.5413 15.9911 25.5413ZM33.8001 19.1595H0.000313925V24.45C0.000313925 25.7287 1.05619 26.7766 2.34801 26.7766H9.14874C9.32169 25.1983 10.0434 23.7757 11.1217 22.7024L11.1249 22.6981L11.1324 22.6918C12.3783 21.4586 14.0961 20.6933 15.9911 20.6933C17.8883 20.6933 19.6114 21.4575 20.8584 22.6928C21.9367 23.763 22.6595 25.1867 22.8324 26.7766H39.2033C39.5535 18.8758 50.9802 17.7855 52.1439 26.7766H54.6624C53.2115 16.7673 54.6645 18.9817 45.5204 15.4155C45.4424 14.2617 45.1307 13.1027 44.7133 11.9626C42.9047 7.01936 39.9058 7.44912 33.8001 7.40678V19.1595ZM39.7616 10.1071L36.8321 10.0605V15.4155H42.2556C41.9855 13.669 41.2851 11.6059 39.7616 10.1071ZM45.6741 25.0861C44.5734 25.0861 43.6819 25.9711 43.6819 27.0613C43.6819 28.1516 44.5734 29.0365 45.6741 29.0365C46.7727 29.0365 47.6652 28.1516 47.6652 27.0613C47.6652 25.9711 46.7727 25.0861 45.6741 25.0861Z" fill="#277EFF"/>
</svg>
