<svg width="63" height="48" viewBox="0 0 63 48" fill="none" xmlns="http://www.w3.org/2000/svg">
<path d="M18.4164 13.4571C18.6407 12.8468 19.0367 12.4123 19.6031 12.151C20.1695 11.8886 20.758 11.8663 21.3575 12.0941L24.6259 13.3148C25.462 11.9728 26.5702 10.7298 27.7177 9.64781L26.1412 6.17769C25.8751 5.59335 25.8506 5.0053 26.0676 4.41477C26.287 3.81682 26.683 3.39342 27.2617 3.12601L31.5758 1.12664C32.1275 0.870372 32.7 0.844374 33.3044 1.05979C33.899 1.2752 34.3293 1.67507 34.5941 2.26065L36.0383 5.43736C37.5892 5.12167 39.1903 5.01149 40.7681 5.12538L42.1277 1.50423C42.3238 0.906274 42.7014 0.475449 43.2752 0.209279C43.8416 -0.0531778 44.4239 -0.0667959 45.032 0.157282L49.4418 1.81249C50.0474 2.03905 50.4777 2.43892 50.7376 3.01088C50.9963 3.5816 51.0183 4.17708 50.7928 4.78246L49.584 8.08297C50.9117 8.92729 52.1425 10.0464 53.2153 11.2052L56.6504 9.61314C57.2303 9.3445 57.8126 9.31974 58.3974 9.53886C58.9895 9.76046 59.4088 10.1603 59.6736 10.7447L61.6535 15.1012C61.9073 15.6595 61.9318 16.2352 61.7185 16.8468C61.5064 17.446 61.1104 17.8818 60.5306 18.1492L57.3848 19.6075C57.7023 21.1971 57.7967 22.8053 57.7121 24.4246L61.2796 25.7567C61.8718 25.956 62.2984 26.3361 62.562 26.9167C62.8219 27.4874 62.8354 28.0755 62.6135 28.6908L60.9928 33.1847C60.7574 33.7715 60.3528 34.1887 59.7876 34.4499C59.2212 34.7124 58.6414 34.7533 58.0504 34.5477L54.7636 33.2862C53.9104 34.6356 52.8315 35.86 51.673 36.9532L53.2496 40.4233C53.5156 41.0076 53.5401 41.5945 53.3231 42.1862C53.1037 42.7842 52.7077 43.2076 52.1291 43.475L47.8149 45.4743C47.262 45.7306 46.6907 45.7554 46.0863 45.54C45.4917 45.3246 45.0614 44.9259 44.7954 44.3403L43.3524 41.1636C41.7771 41.4855 40.1858 41.5796 38.5822 41.4942L37.2631 45.0968C37.0657 45.6947 36.6807 46.1292 36.1009 46.3979C35.5136 46.6703 34.9362 46.6814 34.3575 46.4437L29.9073 44.8058C29.325 44.5694 28.913 44.1608 28.6531 43.5901C28.3932 43.0182 28.354 42.4326 28.5575 41.8359L29.8055 38.518C29.3716 38.2419 28.9474 37.9362 28.5355 37.6093L31.783 35.9578C32.5394 35.5914 33.1659 35.5381 33.7544 35.6099C34.1528 35.808 34.5611 35.9851 34.9791 36.1423C36.5912 36.7464 38.3027 37.0176 40.1048 36.9829C45.5628 36.8108 50.512 33.2367 52.4123 28.0631C53.6676 24.6437 53.4972 20.9037 51.9954 17.5995C49.6918 12.5324 44.8248 9.50667 39.2859 9.61686C35.6791 9.73323 32.1287 11.3798 29.6891 14.065C28.1235 15.8341 27.0533 17.8818 26.5212 20.0458C26.0627 20.8728 25.6164 21.5326 25.1898 21.7381L25.1935 21.7456L21.6566 23.4986C21.6541 23.069 21.6664 22.6406 21.6958 22.2172L18.1111 20.8443C17.519 20.645 17.0923 20.2649 16.8288 19.6843C16.5689 19.1123 16.5554 18.5255 16.7773 17.9102L18.4164 13.4571ZM9.37492 47.985C6.78937 48.1447 4.10452 47.0194 1.99586 45.015C12.5869 45.025 10.5678 32.0383 0 36.4444C1.44663 31.1271 6.14574 29.0213 11.2053 30.1256C13.8815 30.7075 15.4704 31.194 17.9983 30.0389L26.9858 25.5834C31.7781 23.2819 30.8599 14.6654 38.9157 14.1715C41.5012 14.0105 44.1824 15.1383 46.2959 17.1414C35.7036 17.1303 37.7228 30.1169 48.2918 25.7109C46.8452 31.0281 42.1448 33.1339 37.0865 32.0296C34.8663 31.5419 33.1659 30.5539 29.9343 32.1374L21.4396 36.4567C19.7564 37.3531 19.1875 37.9399 18.2521 39.6013C15.9632 43.6656 14.7851 47.652 9.37492 47.985Z" fill="#277EFF"/>
</svg>
