<svg width="42" height="56" viewBox="0 0 42 56" fill="none" xmlns="http://www.w3.org/2000/svg">
<path fill-rule="evenodd" clip-rule="evenodd" d="M30.0778 45.7099H12.0329L9.9132 48.8399H32.1209L30.0778 45.7099ZM7.91973 51.7804L5.45271 55.4201H0L8.85783 42.1333H7.28381C5.137 42.1333 3.37806 40.3744 3.37806 38.2276V3.90575C3.38257 1.75894 5.137 0 7.28381 0H34.8946C37.0414 0 38.8004 1.75894 38.8004 3.90575V38.2276C38.8004 40.3744 37.0414 42.1333 34.8946 42.1333H33.3612L41.8537 55.2307H36.2837L34.0332 51.7804H7.91973ZM28.4001 30.5153H33.1267C33.6408 30.5153 34.0603 30.9348 34.0603 31.4489V36.171C34.0603 36.6851 33.6408 37.1046 33.1267 37.1046H28.4001C27.8859 37.1046 27.4665 36.6851 27.4665 36.171V31.4444C27.4665 30.9348 27.8859 30.5153 28.4001 30.5153ZM8.56017 30.5153H13.2868C13.8009 30.5153 14.2203 30.9348 14.2203 31.4489V36.171C14.2203 36.6851 13.8009 37.1046 13.2868 37.1046H8.56017C8.04602 37.1046 7.62658 36.6851 7.62658 36.171V31.4444C7.62658 30.9348 8.04602 30.5153 8.56017 30.5153ZM11.3203 7.53187H30.6281C32.7027 7.53187 34.3985 9.22766 34.3985 11.3068V17.2466C34.3985 19.3213 32.7027 21.0171 30.6281 21.0171H11.3203C9.2457 21.0171 7.54991 19.3213 7.54991 17.2466V11.3068C7.54991 9.23217 9.2457 7.53187 11.3203 7.53187ZM17.2872 1.71384H24.5936C24.9589 1.71384 25.2566 2.0115 25.2566 2.37682V5.25427C25.2566 5.61958 24.9589 5.91725 24.5936 5.91725H17.2872C16.9219 5.91725 16.6242 5.61958 16.6242 5.25427V2.37682C16.6197 2.0115 16.9174 1.71384 17.2872 1.71384Z" fill="#277EFF"/>
</svg>
