<svg width="56" height="51" viewBox="0 0 56 51" fill="none" xmlns="http://www.w3.org/2000/svg">
<path d="M16.644 11.2216H18.2547V9.75414H18.2636C18.2636 9.21279 18.4829 8.72064 18.8363 8.36719L18.8318 8.36272C19.1808 8.01374 19.6685 7.79452 20.2143 7.79452H20.2188V7.78557H23.2343V3.03862H23.2432C23.2432 2.3183 23.5385 1.66509 24.0083 1.19532C24.4781 0.725542 25.1268 0.439203 25.8427 0.434729V0.425781H30.4062V0.434729C31.1265 0.434729 31.7797 0.730016 32.2495 1.19979C32.7148 1.66956 33.0056 2.3183 33.0101 3.03414H33.0145V7.79004H36.03V7.79899C36.5714 7.79899 37.0635 8.01822 37.417 8.37614C37.766 8.72512 37.9852 9.21279 37.9852 9.74967V9.75414H37.9897V11.2216H39.6003V11.2127V11.2216C40.1864 11.2216 40.7143 11.4588 41.0991 11.839L41.1036 11.8346C41.4839 12.2149 41.7165 12.7428 41.721 13.3334H41.7299V21.7803H41.721C41.721 21.9862 41.6897 22.1875 41.636 22.3799L47.7296 25.3417L41.5152 31.6724V37.9898C42.4682 37.5111 43.2198 36.7997 43.9267 36.1286C45.3539 34.7774 46.6559 33.5426 48.9063 33.5157C51.4386 33.4889 52.2574 34.7953 54.0022 36.1375C54.2841 36.3568 54.5749 36.5805 54.9641 36.8623L55.0089 36.8936C55.756 37.435 55.9261 38.4819 55.3802 39.2291C54.8389 39.9807 53.7919 40.1463 53.0403 39.6049L52.9956 39.5736C52.7048 39.3633 52.3289 39.0725 51.9576 38.7862C50.678 37.7974 50.3111 36.8444 48.9287 36.8578C48.007 36.8668 47.1569 37.6721 46.2308 38.5535C44.4815 40.2134 42.5353 42.0567 38.71 41.8822C35.4752 42.0298 33.5872 40.7324 32.0213 39.323H23.8964C22.2589 40.5534 20.4783 41.6719 17.8878 41.6406C14.926 41.6764 13.0201 40.2089 11.1768 38.7862C9.89719 37.7974 8.65788 36.8444 7.27541 36.8578C6.35376 36.8668 5.50369 37.6721 4.57756 38.5535C4.23306 38.8801 3.87962 39.2157 3.4859 39.5512C2.78348 40.1552 1.7276 40.0702 1.12808 39.3678C0.528563 38.6654 0.609096 37.6095 1.31152 37.01C1.63365 36.7326 1.95578 36.4283 2.27344 36.1286C3.70065 34.7774 5.0026 33.5426 7.25304 33.5157C9.78534 33.4889 11.4765 34.7953 13.2214 36.1375C14.0088 36.746 14.8097 37.3589 15.6821 37.7795V31.4666L10.3893 25.2388L14.8186 22.8586C14.6352 22.5454 14.5278 22.1785 14.5278 21.7893H14.5233V13.3378H14.5278C14.5278 12.7473 14.7649 12.2149 15.1452 11.8346C15.2123 11.7675 15.2839 11.7093 15.3555 11.6556C15.709 11.3872 16.1564 11.2261 16.644 11.2216V11.2127V11.2216ZM17.8878 47.2197H17.9057C19.7177 47.2466 21.1583 46.137 22.5542 45.0588C24.2991 43.7121 25.9903 42.4057 28.5226 42.437C30.773 42.4593 32.075 43.6942 33.5022 45.0498C34.7683 46.2533 36.1777 47.5866 38.6294 47.4613C38.6608 47.4613 38.6876 47.4613 38.7189 47.4613C38.7502 47.4613 38.7771 47.4613 38.8084 47.4613C41.2557 47.5911 42.665 46.2533 43.9356 45.0498C45.3629 43.6986 46.6648 42.4638 48.9152 42.437C51.4475 42.4101 52.2663 43.7121 54.0112 45.0588C54.293 45.278 54.5838 45.5017 54.9731 45.7835L55.0134 45.8149C55.7605 46.3517 55.9305 47.3987 55.3937 48.1458C54.8523 48.893 53.8098 49.063 53.0627 48.5261L53.0179 48.4948L53.0135 48.4903L53.009 48.4948C52.7182 48.2845 52.3424 47.9937 51.971 47.7074C50.6914 46.7186 50.3246 45.7657 48.9421 45.7791C48.0204 45.788 47.1704 46.5933 46.2442 47.4747C44.4949 49.1346 42.5487 50.9779 38.7234 50.8034C34.9026 50.9779 32.9564 49.1346 31.2025 47.4747C30.2719 46.5933 29.4264 45.7925 28.5047 45.7791C27.1267 45.7657 25.8829 46.7231 24.6033 47.7074C22.76 49.1301 20.8541 50.5976 17.8923 50.5618C14.9305 50.5976 13.0245 49.1301 11.1812 47.7074C9.90167 46.7186 8.66236 45.7657 7.27988 45.7791C6.35823 45.788 5.50816 46.5933 4.58204 47.4747C4.23754 47.8013 3.88409 48.1369 3.49037 48.4724C2.78795 49.072 1.73208 48.9914 1.13256 48.289C0.533037 47.5866 0.61357 46.5307 1.31599 45.9312C1.63812 45.6538 1.96025 45.3496 2.27791 45.0498C3.70513 43.6986 5.00707 42.4638 7.25751 42.437C9.78981 42.4101 11.481 43.7121 13.2259 45.0588C14.6218 46.1325 16.0624 47.2466 17.8744 47.2197H17.8878ZM19.1048 20.5545L28.017 15.7628L37.8823 20.5545H38.3834V14.5637H36.473C36.4237 14.5682 36.3745 14.5682 36.3208 14.5682C35.3947 14.5682 34.6431 13.8166 34.6431 12.8904V11.1456H31.3412C30.4151 11.1456 29.6635 10.3939 29.6635 9.4678V3.78131H26.5853V9.47228C26.5853 10.3984 25.8337 11.15 24.9076 11.15H21.6057V12.8949H21.6013C21.6013 13.8166 20.8541 14.5637 19.9325 14.5637H17.8744V20.5545H19.1048Z" fill="#277EFF"/>
</svg>
