<svg width="158" height="60" viewBox="0 0 158 60" fill="none" xmlns="http://www.w3.org/2000/svg">
<path d="M154.441 30.7607C154.441 46.2855 121.493 58.2003 80.8502 58.2003C40.2076 58.2003 2.33594 44.2176 2.33594 28.6929C2.33594 13.1682 40.2081 0.972046 80.8507 0.972046C121.493 0.972046 154.441 15.236 154.441 30.7607Z" fill="#048DF5"/>
<path d="M78.5658 3.05176e-05C35.179 3.05176e-05 0.00390625 13.1957 0.00390625 29.4708C0.00390625 45.7458 35.179 60 78.5658 60C121.952 60 157.128 47.506 157.128 31.231C157.128 14.9559 121.952 3.05176e-05 78.5658 3.05176e-05ZM78.5658 55.5253C37.7472 55.5253 4.65741 42.7787 4.65741 28.2198C4.65741 13.6608 37.7472 1.8605 78.5658 1.8605C119.384 1.8605 152.474 15.2366 152.474 29.7955C152.474 44.3545 119.384 55.5253 78.5658 55.5253Z" fill="white"/>
<path d="M51.6593 49.6464C51.6593 49.6464 10.203 45.5027 8.7277 28.6929C7.25238 11.8831 56.6754 5.17606 56.6754 5.17606C56.6754 5.17606 20.2092 10.6207 19.645 27.4112C19.0808 44.2018 51.6593 49.6464 51.6593 49.6464Z" fill="white"/>
<path d="M105.377 7.4054C105.377 7.4054 146.883 11.545 148.309 28.359C149.871 46.7789 100.086 51.2867 100.086 51.2867C100.086 51.2867 136.827 46.4311 137.391 29.6406C137.955 12.85 105.377 7.4054 105.377 7.4054Z" fill="white"/>
<path d="M25.7422 35.5035C25.7422 35.5035 29.8731 36.9129 33.9056 32.393C37.9381 27.873 42.0198 21.7492 42.0198 21.7492C42.0198 21.7492 41.1346 34.3641 45.1671 35.7114C49.1997 37.0587 52.1995 30.0115 54.1174 27.4113C56.0353 24.8111 57.068 23.0615 57.068 23.0615C57.068 23.0615 54.56 33.6825 60.9038 35.8809C67.2477 38.0793 68.2804 33.0248 68.2804 33.0248C68.2804 33.0248 63.2151 29.5255 64.8872 19.0762L65.3789 14.6048C65.3789 14.6048 59.3301 14.1188 57.9532 15.9657C56.5763 17.8125 49.7406 27.4113 49.7406 27.4113L48.4128 16.8405C48.4128 16.8405 48.1669 14.2948 44.1344 14.547C40.1019 14.7992 39.8068 15.0422 40.2494 15.3338C40.692 15.6255 40.9871 15.7712 40.9871 16.4517C40.9871 17.1321 34.4957 24.8111 34.4957 24.8111L25.7422 35.5035Z" fill="white"/>
<path d="M69.1172 36.0866C69.1172 36.0866 73.2481 37.496 77.2806 32.9761C81.3131 28.4561 85.3948 22.3324 85.3948 22.3324C85.3948 22.3324 84.5096 34.9472 88.5421 36.2945C92.5747 37.6418 95.5745 30.5946 97.4924 27.9944C99.4103 25.3943 100.443 23.6446 100.443 23.6446C100.443 23.6446 97.935 34.2656 104.279 36.464C110.623 38.6625 111.655 33.6079 111.655 33.6079C111.655 33.6079 106.59 30.1086 108.262 19.6593L108.754 15.1879C108.754 15.1879 102.705 14.7019 101.328 16.5488C99.9513 18.3956 93.1156 27.9944 93.1156 27.9944L91.7879 17.4236C91.7879 17.4236 91.542 14.878 87.5094 15.1302C83.4769 15.3824 83.1819 15.6253 83.6245 15.917C84.067 16.2086 84.3621 16.3544 84.3621 17.0348C84.3621 17.7152 77.8707 25.3943 77.8707 25.3943L69.1172 36.0866Z" fill="white"/>
<path d="M119.673 16.7676C119.673 16.7676 114.952 24.7139 113.993 31.0564C113.034 37.3989 112.961 37.3989 113.993 37.6176C115.026 37.8363 122.123 38.4195 124.218 37.6176C126.312 36.8157 127.566 34.4828 127.271 33.6809C127.132 33.3041 125.582 33.8468 123.976 33.9968C122.746 34.0935 121.509 34.0853 120.28 33.9725C120.879 31.6667 121.662 29.4117 122.624 27.229C124.394 23.0372 127.566 17.4966 126.607 16.7676C125.648 16.0385 121.296 15.6011 119.673 16.7676Z" fill="white"/>
<path d="M45.3348 40.9685C45.2491 40.9951 45.1743 41.048 45.1211 41.1195C45.068 41.191 45.0392 41.2773 45.0391 41.366C45.0389 41.4547 45.0674 41.5412 45.1203 41.6128C45.1732 41.6845 45.2478 41.7376 45.3334 41.7645C48.6131 42.7984 58.0792 45.7355 60.1442 45.8555C62.6523 46.0013 63.3523 42.7207 78.5668 41.7001C93.7814 40.6795 121.001 40.315 121.001 40.315V39.8046C121.001 39.8046 94.224 38.4924 88.1752 39.1485C82.4559 39.7689 53.1276 38.6295 45.3348 40.9685Z" fill="white"/>
</svg>
