<svg width="611" height="60" viewBox="0 0 611 60" fill="none" xmlns="http://www.w3.org/2000/svg">
<g clip-path="url(#clip0_1151_1234)">
<path d="M154.441 30.7607C154.441 46.2855 121.493 58.2003 80.8502 58.2003C40.2076 58.2003 2.33594 44.2176 2.33594 28.6929C2.33594 13.1681 40.2081 0.972038 80.8507 0.972038C121.493 0.972038 154.441 15.236 154.441 30.7607Z" fill="#048DF5"/>
<path d="M78.5658 3.05176e-05C35.179 3.05176e-05 0.00390625 13.1957 0.00390625 29.4708C0.00390625 45.7458 35.179 60 78.5658 60C121.952 60 157.128 47.506 157.128 31.231C157.128 14.9559 121.952 3.05176e-05 78.5658 3.05176e-05ZM78.5658 55.5253C37.7472 55.5253 4.65741 42.7787 4.65741 28.2198C4.65741 13.6608 37.7472 1.8605 78.5658 1.8605C119.384 1.8605 152.474 15.2366 152.474 29.7955C152.474 44.3545 119.384 55.5253 78.5658 55.5253Z" fill="white"/>
<path d="M51.6593 49.6464C51.6593 49.6464 10.203 45.5027 8.7277 28.6929C7.25238 11.8831 56.6754 5.17606 56.6754 5.17606C56.6754 5.17606 20.2092 10.6207 19.645 27.4112C19.0808 44.2018 51.6593 49.6464 51.6593 49.6464Z" fill="white"/>
<path d="M105.377 7.4054C105.377 7.4054 146.883 11.545 148.309 28.359C149.871 46.7789 100.086 51.2867 100.086 51.2867C100.086 51.2867 136.827 46.4311 137.391 29.6406C137.955 12.85 105.377 7.4054 105.377 7.4054Z" fill="white"/>
<path d="M25.7422 35.5035C25.7422 35.5035 29.8731 36.9129 33.9056 32.393C37.9381 27.873 42.0198 21.7492 42.0198 21.7492C42.0198 21.7492 41.1346 34.3641 45.1671 35.7114C49.1997 37.0587 52.1995 30.0115 54.1174 27.4113C56.0353 24.8111 57.068 23.0615 57.068 23.0615C57.068 23.0615 54.56 33.6825 60.9038 35.8809C67.2477 38.0793 68.2804 33.0248 68.2804 33.0248C68.2804 33.0248 63.2151 29.5255 64.8872 19.0762L65.3789 14.6048C65.3789 14.6048 59.3301 14.1188 57.9532 15.9657C56.5763 17.8125 49.7406 27.4113 49.7406 27.4113L48.4128 16.8405C48.4128 16.8405 48.1669 14.2948 44.1344 14.547C40.1019 14.7992 39.8068 15.0422 40.2494 15.3338C40.692 15.6255 40.9871 15.7712 40.9871 16.4517C40.9871 17.1321 34.4957 24.8111 34.4957 24.8111L25.7422 35.5035Z" fill="white"/>
<path d="M69.1172 36.0866C69.1172 36.0866 73.2481 37.496 77.2806 32.9761C81.3131 28.4562 85.3948 22.3324 85.3948 22.3324C85.3948 22.3324 84.5096 34.9472 88.5421 36.2945C92.5747 37.6418 95.5745 30.5946 97.4924 27.9944C99.4103 25.3943 100.443 23.6446 100.443 23.6446C100.443 23.6446 97.935 34.2656 104.279 36.4641C110.623 38.6625 111.655 33.6079 111.655 33.6079C111.655 33.6079 106.59 30.1086 108.262 19.6593L108.754 15.188C108.754 15.188 102.705 14.7019 101.328 16.5488C99.9513 18.3956 93.1156 27.9944 93.1156 27.9944L91.7879 17.4236C91.7879 17.4236 91.542 14.878 87.5094 15.1302C83.4769 15.3824 83.1819 15.6253 83.6245 15.917C84.067 16.2086 84.3621 16.3544 84.3621 17.0348C84.3621 17.7152 77.8707 25.3943 77.8707 25.3943L69.1172 36.0866Z" fill="white"/>
<path d="M119.673 16.7676C119.673 16.7676 114.952 24.7139 113.993 31.0564C113.034 37.3989 112.961 37.3989 113.993 37.6176C115.026 37.8363 122.123 38.4195 124.218 37.6176C126.312 36.8157 127.566 34.4828 127.271 33.6809C127.132 33.3041 125.582 33.8468 123.976 33.9968C122.746 34.0935 121.509 34.0853 120.28 33.9725C120.879 31.6667 121.662 29.4117 122.624 27.229C124.394 23.0372 127.566 17.4966 126.607 16.7676C125.648 16.0385 121.296 15.6011 119.673 16.7676Z" fill="white"/>
<path d="M45.3348 40.9685C45.2491 40.9951 45.1743 41.048 45.1211 41.1195C45.068 41.1909 45.0392 41.2773 45.0391 41.366C45.0389 41.4547 45.0674 41.5412 45.1203 41.6128C45.1732 41.6845 45.2478 41.7376 45.3334 41.7645C48.6131 42.7984 58.0792 45.7355 60.1442 45.8555C62.6523 46.0013 63.3523 42.7207 78.5668 41.7001C93.7814 40.6795 121.001 40.315 121.001 40.315V39.8046C121.001 39.8046 94.224 38.4924 88.1752 39.1485C82.4559 39.7689 53.1276 38.6295 45.3348 40.9685Z" fill="white"/>
<path d="M182.429 30.0049L186.537 17.6508H195.898V20.0288C195.106 20.0578 194.079 20.1739 193.638 20.6089C193.257 20.9858 193.228 21.6818 193.228 22.2909V32.8179C193.176 33.3287 193.278 33.8433 193.521 34.297C193.903 34.79 195.047 34.964 195.663 35.022H195.898V37.4H185.217V35.022H185.452C186.068 34.993 187.095 34.8479 187.564 34.4129C188.004 34.0069 188.034 33.0209 188.034 32.3539V22.4649L183.045 37.4H179.729L174.741 22.2329V32.644C174.741 33.2239 174.771 33.9199 175.064 34.297C175.445 34.79 176.561 34.964 177.147 35.022H177.382V37.4H169.371V35.022C171.777 34.819 171.836 34.2389 171.836 32.1508V22.8708C171.836 20.8117 171.807 20.2318 169.371 20.0288V17.6508H178.409L182.429 30.0049Z" fill="white"/>
<path d="M207.492 37.4H196.957V35.022C197.691 34.993 198.718 34.8479 199.158 34.4419C199.539 34.065 199.569 33.369 199.569 32.7599V22.4067C199.569 21.8268 199.539 21.1308 199.246 20.7538C198.864 20.2608 197.779 20.0867 197.163 20.0578L196.957 20.0288V17.6508H207.492V20.0578C206.67 20.0868 205.643 20.2029 205.173 20.6379C204.792 20.9858 204.763 21.6818 204.763 22.2909V32.8468C204.763 33.398 204.792 33.9779 205.056 34.297C205.467 34.819 206.582 34.993 207.227 35.022H207.492V37.4Z" fill="white"/>
<path d="M215.764 20.7248C215.764 20.3769 215.676 20.2897 215.207 20.2897C214.121 20.2897 212.947 21.0147 212.184 21.7107C211.365 22.5336 210.672 23.4717 210.13 24.4948L207.988 23.6539L210.336 17.6508H226.387L228.734 23.6539L226.592 24.4948C226.05 23.4717 225.358 22.5335 224.538 21.7108C223.775 21.0148 222.601 20.2898 221.516 20.2898C221.046 20.2898 220.958 20.3769 220.958 20.7248V32.644C220.958 33.2239 220.987 33.9489 221.281 34.297C221.692 34.8479 222.719 34.993 223.364 35.022H223.716V37.4H213.006V35.022H213.358C214.004 34.993 215.031 34.8479 215.442 34.297C215.735 33.9489 215.764 33.2239 215.764 32.644V20.7248Z" fill="white"/>
<path d="M247.96 32.7309C249.104 34.2099 249.544 34.8479 251.628 35.022V37.4H244.82L238.511 28.9028H236.956V32.238C236.956 34.2099 237.161 34.8479 239.391 34.993L239.802 35.022V37.4H229.238V35.022L229.473 34.993C231.733 34.8479 231.762 34.326 231.762 32.2669V22.6388C231.762 20.8117 231.733 20.1739 229.59 20.0578L229.238 20.0288V17.6508H240.301C242.12 17.6508 244.204 17.7088 245.935 18.3179C247.96 19.0428 249.339 20.6958 249.339 22.8708C249.339 25.684 247.167 27.801 244.468 28.294L247.96 32.7309ZM238.805 26.1188C239.802 26.1188 240.858 26.0898 241.739 25.684C242.795 25.1908 243.675 24.3209 243.675 23.1609C243.675 22.3488 242.971 21.4787 242.326 20.9858C241.533 20.4059 240.389 20.3187 239.45 20.3187C238.658 20.3187 237.601 20.3769 237.19 20.7538C237.001 21.0025 236.916 21.3147 236.956 21.6238V26.1188H238.805Z" fill="white"/>
<path d="M270.765 32.2669C271.528 34.1229 271.586 34.6159 273.611 34.993L273.934 35.022V37.4H263.253V35.022C263.869 34.9349 265.688 34.993 265.688 34.094C265.607 33.5592 265.469 33.0344 265.277 32.5279L264.485 30.3819H258.176L257.354 32.5279C257.169 32.9523 257.05 33.4022 257.003 33.862C257.003 34.8769 258.616 34.8769 259.321 34.993L259.614 35.022V37.4H250.547V35.022C253.129 34.761 253.687 33.166 254.567 31.1069L260.26 17.6508H264.808L270.765 32.2669ZM263.517 27.8589L261.345 22.2329L259.086 27.8589H263.517Z" fill="white"/>
<path d="M296.296 30.0049L300.405 17.6508H309.765V20.0288C308.973 20.0578 307.946 20.1739 307.506 20.6089C307.124 20.9858 307.095 21.6818 307.095 22.2909V32.8179C307.043 33.3287 307.145 33.8433 307.388 34.297C307.77 34.79 308.914 34.964 309.53 35.022H309.765V37.4H299.084V35.022H299.319C299.935 34.993 300.962 34.8479 301.431 34.4129C301.872 34.0069 301.901 33.0209 301.901 32.3539V22.4649L296.912 37.4H293.597L288.608 22.2329V32.644C288.608 33.2239 288.638 33.9199 288.931 34.297C289.312 34.79 290.428 34.964 291.015 35.022H291.249V37.4H283.238V35.022C285.644 34.819 285.703 34.2389 285.703 32.1508V22.8708C285.703 20.8117 285.674 20.2318 283.238 20.0288V17.6508H292.276L296.296 30.0049Z" fill="white"/>
<path d="M324.465 31.252H322.176C322.116 30.3926 321.855 29.5587 321.414 28.8159C320.944 28.1199 319.976 28.0909 319.183 28.0909H318.362V31.8319C318.328 32.5589 318.367 33.2875 318.479 34.0068C318.743 34.7318 320.034 34.7318 320.65 34.7318C324.788 34.7318 327.136 32.8179 329.424 29.5698L331.478 30.5558L328.25 37.4H310.82V35.022L311.319 34.9349C313.109 34.6159 313.168 33.9779 313.168 32.18V22.0878C313.168 20.9857 313.051 20.4058 311.495 20.1449L310.82 20.0288V17.6508H327.752L330.657 23.6539L328.661 24.6109C326.901 22.0299 324.553 20.3187 321.267 20.3187C320.709 20.3187 319.037 20.3477 318.655 20.8409C318.391 21.1888 318.362 21.9427 318.362 22.5808V25.4228H319.829C320.533 25.4228 321.267 25.3648 321.677 24.8139C322.088 24.2048 322.176 23.0158 322.176 22.2619H324.465L324.465 31.252Z" fill="white"/>
<path d="M347.271 29.0479V22.8708C347.271 20.8409 347.241 20.2028 344.747 20.0288V17.6508H352.611V20.0288C350.117 20.1739 350.029 20.7828 350.029 22.8708V37.4H346.39L337.206 22.1458V32.702C337.206 33.2529 337.235 33.9489 337.499 34.297C337.91 34.8189 338.996 34.964 339.788 35.022V37.3999H331.953V35.022C332.687 34.993 333.685 34.8479 334.125 34.4129C334.506 34.065 334.536 33.369 334.536 32.7599V22.3778C334.536 21.7979 334.506 21.1308 334.242 20.7538C333.831 20.2318 332.746 20.0867 331.953 20.0288V17.6508H340.551L347.271 29.0479Z" fill="white"/>
<path d="M360.733 20.7248C360.733 20.3769 360.645 20.2897 360.175 20.2897C359.09 20.2897 357.916 21.0147 357.153 21.7107C356.333 22.5336 355.641 23.4717 355.099 24.4948L352.957 23.6539L355.305 17.6508H371.355L373.703 23.6539L371.561 24.4948C371.019 23.4717 370.327 22.5335 369.507 21.7108C368.744 21.0148 367.57 20.2898 366.485 20.2898C366.015 20.2898 365.927 20.3769 365.927 20.7248V32.644C365.927 33.2239 365.956 33.9489 366.25 34.297C366.66 34.8479 367.687 34.993 368.333 35.022H368.685V37.4H357.975V35.022H358.327C358.973 34.993 360 34.8479 360.41 34.297C360.704 33.9489 360.733 33.2239 360.733 32.644V20.7248Z" fill="white"/>
<path d="M391.608 32.2669C392.371 34.1229 392.43 34.6159 394.455 34.993L394.778 35.022V37.4H384.096V35.022C384.712 34.9349 386.532 34.993 386.532 34.094C386.45 33.5592 386.313 33.0344 386.121 32.5279L385.329 30.3819H379.02L378.198 32.5279C378.013 32.9523 377.894 33.4022 377.846 33.862C377.846 34.8769 379.46 34.8769 380.165 34.993L380.458 35.022V37.4H371.391V35.022C373.973 34.761 374.53 33.166 375.41 31.1069L381.104 17.6508H385.652L391.608 32.2669ZM384.361 27.8589L382.189 22.2329L379.93 27.8589H384.361Z" fill="white"/>
<path d="M404.607 32.673C404.607 33.2529 404.636 33.9199 404.9 34.297C405.311 34.819 406.426 34.993 407.042 34.993L407.307 35.022V37.4H396.743V35.022C397.535 34.993 398.562 34.8479 399.002 34.4129C399.384 34.036 399.413 33.2529 399.413 32.6149V29.3089L395.569 23.3348C394.454 21.6238 393.662 20.2608 391.402 20.0288V17.6508H402.582V20.0288C402.054 20.0868 400.294 19.9708 400.294 20.7538C400.358 21.0212 400.467 21.2761 400.616 21.5079L403.169 26.0898L405.252 22.6388C405.487 22.2329 406.25 21.1309 406.25 20.6668C406.25 19.9708 404.578 20.0578 404.108 20.0288V17.6508H413.058V20.0288C410.446 20.2608 409.537 21.5079 408.216 23.5668L404.607 29.0479L404.607 32.673Z" fill="white"/>
<path d="M430.112 32.2669C430.875 34.1229 430.934 34.6159 432.959 34.993L433.282 35.022V37.4H422.6V35.022C423.216 34.9349 425.036 34.993 425.036 34.094C424.954 33.5592 424.817 33.0344 424.625 32.5279L423.833 30.3819H417.524L416.702 32.5279C416.517 32.9523 416.398 33.4022 416.35 33.862C416.35 34.8769 417.964 34.8769 418.668 34.993L418.962 35.022V37.4H409.895V35.022C412.477 34.761 413.034 33.166 413.914 31.1069L419.607 17.6508H424.155L430.112 32.2669ZM422.865 27.8589L420.693 22.2329L418.433 27.8589H422.865Z" fill="white"/>
<path d="M458.549 37.4H442.586V35.022C444.992 34.79 445.021 34.2678 445.021 32.18V22.8708C445.021 20.7827 445.021 20.2898 442.586 20.0288V17.6508H452.915V20.0288C452.093 20.0868 451.066 20.2028 450.597 20.6379C450.245 20.9568 450.215 21.5659 450.215 22.1458V33.2819C450.215 34.355 450.362 34.7318 452.005 34.7318C455.409 34.7318 458.05 32.2669 459.576 29.4539L461.601 30.4978L458.549 37.4Z" fill="white"/>
<path d="M464.978 35.1668C462.777 33.1949 461.809 30.6719 461.809 27.7428C461.809 21.4787 466.474 17.1578 472.666 17.1578C478.476 17.1578 483.347 21.0439 483.347 27.0759C483.347 33.4269 478.593 37.8929 472.284 37.8929C469.58 37.9725 466.954 36.9927 464.978 35.1668ZM476.715 32.18C477.401 30.6271 477.732 28.9436 477.684 27.2498C477.684 24.2048 476.569 20.0867 472.783 20.0867C468.792 20.0867 467.472 24.3209 467.472 27.6559C467.472 30.8459 468.617 34.964 472.548 34.964C474.485 34.964 475.864 33.8038 476.715 32.18V32.18Z" fill="white"/>
<path d="M497.404 27.2498H506.941V29.6278L506.53 29.6859C504.77 29.9469 504.652 30.4688 504.652 31.7449V37.6319H501.424L500.749 35.979C499.978 36.4761 499.163 36.9032 498.314 37.2549C497.162 37.6539 495.954 37.8693 494.734 37.8929C488.66 37.8929 485.285 33.2239 485.285 27.5689C485.285 21.6528 489.158 17.1578 495.262 17.1578C497.027 17.2019 498.757 17.659 500.309 18.4917L500.749 17.6508H502.627L504.447 24.2919L502.334 25.0169C501.102 22.5808 498.548 20.0867 495.614 20.0867C491.858 20.0867 490.949 24.8429 490.949 27.8009C490.949 31.0198 492.093 34.964 495.996 34.964C497.874 34.964 499.986 33.5428 499.986 31.5709C499.986 29.9759 498.842 29.6278 497.404 29.6278L497.404 27.2498Z" fill="white"/>
<path d="M518.269 37.4H507.734V35.022C508.468 34.993 509.495 34.8479 509.935 34.4419C510.317 34.065 510.346 33.369 510.346 32.7599V22.4067C510.346 21.8268 510.317 21.1308 510.023 20.7538C509.642 20.2608 508.556 20.0867 507.94 20.0578L507.734 20.0288V17.6508H518.269V20.0578C517.447 20.0868 516.42 20.2029 515.951 20.6379C515.569 20.9858 515.54 21.6818 515.54 22.2909V32.8468C515.54 33.398 515.569 33.9779 515.833 34.297C516.244 34.819 517.359 34.993 518.005 35.022H518.269V37.4Z" fill="white"/>
<path d="M532.679 17.6508H534.44L536.377 23.5378L534.264 24.3209L534 23.9438C533.325 23.0158 532.503 21.9138 531.535 21.2757C530.481 20.5274 529.223 20.1128 527.926 20.0867C526.605 20.0867 524.698 20.5799 524.698 22.1747C524.698 23.5957 526.899 23.9148 527.926 24.1758L529.012 24.4078L530.978 24.9298C532.445 25.3358 534.235 25.7419 535.526 26.5538C536.934 27.4528 537.639 29.1348 537.639 30.7588C537.639 35.3119 533.618 37.8929 529.363 37.8929C527.662 37.8929 525.461 37.371 524.111 36.2979L523.7 37.632H521.94L519.504 30.324L521.734 29.5988C523.26 32.5279 525.813 34.964 529.334 34.964C530.948 34.964 533.09 34.326 533.09 32.4118C533.09 30.817 531.153 30.5268 529.951 30.2369L526.635 29.425C525.197 29.0769 523.319 28.6418 522.116 27.8009C521.461 27.3062 520.935 26.6636 520.583 25.927C520.231 25.1903 520.062 24.381 520.091 23.5668C520.091 19.5068 523.788 17.1578 527.574 17.1578C529.263 17.1738 530.912 17.6669 532.327 18.5788L532.679 17.6508Z" fill="white"/>
<path d="M545.913 20.7248C545.913 20.3768 545.825 20.2897 545.355 20.2897C544.27 20.2897 543.096 21.0147 542.333 21.7107C541.513 22.5335 540.821 23.4717 540.279 24.4947L538.137 23.6538L540.484 17.6508H556.535L558.883 23.6538L556.74 24.4947C556.199 23.4716 555.506 22.5334 554.686 21.7107C553.923 21.0147 552.75 20.2897 551.664 20.2897C551.195 20.2897 551.106 20.3768 551.106 20.7248V32.644C551.106 33.2239 551.136 33.9489 551.429 34.297C551.84 34.8479 552.867 34.993 553.513 35.0219H553.865V37.3999H543.154V35.022H543.506C544.152 34.993 545.179 34.8479 545.59 34.297C545.883 33.9489 545.913 33.2239 545.913 32.644V20.7248Z" fill="white"/>
<path d="M569.917 37.4H559.383V35.022C560.117 34.993 561.144 34.8479 561.584 34.4419C561.965 34.065 561.995 33.369 561.995 32.7599V22.4067C561.995 21.8268 561.965 21.1308 561.672 20.7538C561.29 20.2608 560.205 20.0867 559.588 20.0578L559.383 20.0288V17.6508H569.917V20.0578C569.096 20.0868 568.069 20.2029 567.599 20.6379C567.218 20.9858 567.188 21.6818 567.188 22.2909V32.8468C567.188 33.398 567.218 33.9779 567.482 34.297C567.892 34.819 569.008 34.993 569.653 35.022H569.917V37.4Z" fill="white"/>
<path d="M591.784 31.6289C590.258 35.6309 586.327 37.8929 582.072 37.8929C575.998 37.8929 571.566 33.572 571.566 27.5689C571.566 21.5658 575.381 17.1578 581.632 17.1578C583.326 17.1489 584.998 17.547 586.502 18.3178L586.855 17.6508H588.615L591.227 24.4948L588.967 25.3069L588.85 25.1618C588.146 23.9728 587.441 22.7259 586.444 21.7397C585.388 20.6958 583.95 19.8547 582.424 19.8547C578.404 19.8547 577.23 24.3209 577.23 27.4818C577.23 29.0479 577.67 31.1938 578.55 32.5279C578.998 33.2713 579.634 33.8867 580.396 34.3138C581.157 34.7409 582.018 34.965 582.893 34.964C585.798 34.964 588.087 32.7889 589.378 30.382L591.784 31.6289Z" fill="white"/>
<path d="M606.046 17.6508H607.807L609.744 23.5378L607.631 24.3209L607.367 23.9438C606.692 23.0158 605.87 21.9137 604.902 21.2757C603.849 20.5274 602.59 20.1128 601.293 20.0867C599.972 20.0867 598.065 20.5799 598.065 22.1747C598.065 23.5957 600.266 23.9148 601.293 24.1758L602.379 24.4078L604.345 24.9298C605.812 25.3358 607.602 25.7419 608.893 26.5538C610.301 27.4528 611.006 29.1348 611.006 30.7588C611.006 35.3119 606.985 37.8929 602.731 37.8929C601.029 37.8929 598.828 37.371 597.478 36.2979L597.067 37.6319H595.307L592.871 30.324L595.101 29.5988C596.627 32.5279 599.18 34.964 602.701 34.964C604.315 34.964 606.457 34.326 606.457 32.4118C606.457 30.817 604.521 30.5268 603.318 30.2369L600.002 29.4249C598.564 29.0768 596.686 28.6418 595.483 27.8009C594.828 27.3062 594.302 26.6636 593.95 25.927C593.598 25.1903 593.429 24.381 593.458 23.5667C593.458 19.5068 597.155 17.1578 600.941 17.1578C602.63 17.1738 604.28 17.6668 605.695 18.5788L606.046 17.6508Z" fill="white"/>
<path d="M279.523 49.5529C279.531 50.2417 279.406 50.9256 279.153 51.5677C278.922 52.1626 278.566 52.7025 278.109 53.1519C277.652 53.6014 277.104 53.9504 276.5 54.1759C275.832 54.427 275.121 54.5511 274.406 54.5417H270.559V44.564H274.406C275.121 44.5547 275.832 44.68 276.5 44.9333C277.104 45.1632 277.652 45.5131 278.113 45.9613C278.566 46.4103 278.92 46.9471 279.153 47.538C279.406 48.1802 279.531 48.8641 279.523 49.5529ZM277.596 49.5529C277.604 49.0534 277.529 48.5559 277.376 48.0797C277.245 47.6717 277.029 47.2956 276.741 46.9757C276.462 46.6733 276.119 46.4363 275.736 46.2822C275.313 46.1157 274.861 46.0336 274.406 46.0406H272.444V53.0651H274.406C274.861 53.0721 275.313 52.99 275.736 52.8235C276.119 52.6694 276.463 52.4325 276.741 52.13C277.029 51.8101 277.245 51.434 277.376 51.026C277.529 50.5498 277.604 50.0524 277.596 49.5529Z" fill="white"/>
<path d="M290.807 49.5529C290.813 50.2469 290.689 50.9361 290.44 51.585C290.209 52.1881 289.856 52.7385 289.403 53.2031C288.946 53.6652 288.397 54.0282 287.79 54.2691C286.444 54.7797 284.954 54.7797 283.608 54.2691C283.001 54.0277 282.451 53.6647 281.992 53.2031C281.537 52.739 281.182 52.1885 280.948 51.585C280.455 50.2741 280.455 48.8316 280.948 47.5207C281.182 46.9172 281.537 46.3667 281.992 45.9026C282.451 45.4409 283.001 45.078 283.608 44.8365C284.272 44.5746 284.981 44.4445 285.696 44.4536C286.183 44.4506 286.669 44.5097 287.141 44.6296C287.576 44.7401 287.993 44.9071 288.384 45.1263C288.758 45.3379 289.1 45.6004 289.4 45.9061C289.7 46.2122 289.957 46.5568 290.164 46.9308C290.377 47.3178 290.538 47.7307 290.642 48.159C290.754 48.6154 290.809 49.0835 290.807 49.5529ZM288.886 49.5529C288.894 49.0531 288.818 48.5554 288.663 48.0797C288.529 47.6717 288.313 47.2949 288.028 46.9721C287.752 46.6676 287.409 46.4293 287.026 46.2753C286.169 45.9532 285.223 45.9532 284.366 46.2753C283.982 46.4297 283.638 46.6679 283.36 46.9721C283.073 47.294 282.855 47.671 282.722 48.0797C282.424 49.0397 282.424 50.066 282.722 51.026C282.855 51.4339 283.072 51.8099 283.36 52.13C283.639 52.4325 283.982 52.6694 284.366 52.8235C285.223 53.1456 286.169 53.1456 287.026 52.8235C287.408 52.6699 287.751 52.4328 288.028 52.13C288.314 51.809 288.53 51.4332 288.663 51.026C288.818 50.5503 288.894 50.0527 288.886 49.5529Z" fill="white"/>
<path d="M303.409 44.5639V54.5416H301.754V48.0968C301.754 47.8392 301.768 47.5609 301.796 47.2618L298.745 52.927C298.687 53.0519 298.593 53.1572 298.475 53.2296C298.357 53.302 298.22 53.3383 298.081 53.334H297.816C297.677 53.3383 297.54 53.302 297.422 53.2296C297.304 53.1572 297.21 53.0519 297.153 52.927L294.067 47.2413C294.081 47.393 294.092 47.5425 294.102 47.6898C294.111 47.8371 294.116 47.9727 294.116 48.0969V54.5416H292.461V44.5639H293.878C293.962 44.5639 294.034 44.5663 294.095 44.5708C294.151 44.5746 294.206 44.5862 294.259 44.6053C294.309 44.6249 294.355 44.6557 294.392 44.6951C294.437 44.7452 294.476 44.8008 294.507 44.8608L297.53 50.4016C297.609 50.5488 297.682 50.7006 297.75 50.857C297.817 51.0134 297.884 51.1744 297.949 51.34C298.014 51.1698 298.081 51.0054 298.151 50.8466C298.221 50.6878 298.295 50.5349 298.375 50.3877L301.356 44.8608C301.387 44.8001 301.427 44.7443 301.475 44.6951C301.513 44.6559 301.559 44.6253 301.611 44.6053C301.664 44.5862 301.719 44.5746 301.775 44.5708C301.835 44.5663 301.908 44.564 301.991 44.5639H303.409Z" fill="white"/>
<path d="M307.545 46.0405V48.8075H311.078V50.2359H307.545V53.0582H312.028V54.5416H305.66V44.5639H312.028V46.0405H307.545Z" fill="white"/>
<path d="M319.066 46.3787C319.022 46.4607 318.962 46.5325 318.888 46.5892C318.818 46.6348 318.737 46.6577 318.653 46.6548C318.54 46.6495 318.43 46.6125 318.336 46.5479C318.222 46.4766 318.086 46.3972 317.928 46.3098C317.75 46.2142 317.564 46.1345 317.373 46.0717C317.13 45.9959 316.876 45.9598 316.622 45.9648C316.39 45.9607 316.159 45.9921 315.937 46.0578C315.758 46.1116 315.591 46.1995 315.445 46.3167C315.316 46.4234 315.214 46.5595 315.149 46.7135C315.082 46.8744 315.049 47.0468 315.051 47.2206C315.043 47.4335 315.114 47.6418 315.25 47.8071C315.397 47.9743 315.576 48.1105 315.777 48.2073C316.017 48.3264 316.267 48.4256 316.524 48.5039C316.804 48.5914 317.09 48.6846 317.383 48.7835C317.676 48.8821 317.962 48.9973 318.242 49.1285C318.515 49.2555 318.767 49.4231 318.989 49.6254C319.213 49.8327 319.392 50.0826 319.516 50.3601C319.657 50.6941 319.725 51.054 319.715 51.4158C319.718 51.8487 319.639 52.2783 319.481 52.6821C319.329 53.0689 319.096 53.4193 318.797 53.7102C318.482 54.0118 318.107 54.2466 317.697 54.4001C317.222 54.5755 316.717 54.661 316.21 54.6521C315.891 54.6523 315.573 54.6211 315.26 54.5589C314.954 54.4984 314.653 54.4094 314.363 54.2932C314.082 54.1807 313.812 54.0422 313.557 53.8793C313.314 53.725 313.089 53.5445 312.887 53.3411L313.438 52.4509C313.486 52.3849 313.548 52.3296 313.62 52.2888C313.691 52.2459 313.773 52.2233 313.857 52.2232C313.995 52.2308 314.126 52.2801 314.234 52.3646C314.369 52.4589 314.53 52.5636 314.716 52.6786C314.923 52.8037 315.141 52.9089 315.369 52.9927C315.656 53.0933 315.961 53.1412 316.266 53.134C316.713 53.1621 317.154 53.0284 317.508 52.7579C317.659 52.6218 317.776 52.4542 317.852 52.2674C317.929 52.0805 317.961 51.8792 317.949 51.6782C317.959 51.448 317.888 51.2213 317.749 51.0364C317.606 50.8619 317.426 50.7196 317.222 50.619C316.984 50.4986 316.733 50.4027 316.475 50.3326C316.196 50.2544 315.912 50.1693 315.623 50.0773C315.333 49.9845 315.048 49.8738 314.772 49.746C314.496 49.62 314.244 49.4498 314.025 49.2424C313.797 49.0223 313.617 48.758 313.498 48.4662C313.355 48.1 313.287 47.7094 313.298 47.3171C313.3 46.947 313.377 46.5809 313.524 46.2407C313.672 45.9005 313.887 45.5931 314.157 45.3368C314.456 45.058 314.807 44.84 315.191 44.6952C315.641 44.5269 316.12 44.4449 316.601 44.4536C317.163 44.4478 317.72 44.5413 318.249 44.7297C318.726 44.8982 319.163 45.1611 319.533 45.5024L319.066 46.3787Z" fill="white"/>
<path d="M328.396 46.0889H325.352V54.5416H323.474V46.0889H320.43V44.5639H328.396V46.0889Z" fill="white"/>
<path d="M331.612 54.5416H329.727V44.5639H331.612V54.5416Z" fill="white"/>
<path d="M340.801 52.1887C340.852 52.1889 340.903 52.1994 340.95 52.2196C340.996 52.2397 341.038 52.2691 341.073 52.306L341.813 53.0995C341.409 53.5967 340.891 53.9917 340.302 54.2518C339.621 54.5347 338.886 54.6711 338.148 54.652C337.455 54.6629 336.767 54.5337 336.127 54.2724C335.546 54.0317 335.024 53.6719 334.594 53.2167C334.161 52.7503 333.83 52.2007 333.62 51.6021C333.389 50.9434 333.274 50.2501 333.282 49.5529C333.273 48.85 333.396 48.1517 333.645 47.493C333.872 46.8932 334.22 46.3451 334.668 45.8819C335.113 45.4272 335.649 45.0689 336.242 44.8296C336.885 44.5727 337.573 44.4448 338.267 44.4535C338.937 44.4414 339.603 44.5634 340.225 44.8124C340.766 45.0323 341.259 45.3506 341.681 45.7508L341.052 46.6134C341.014 46.6698 340.965 46.7188 340.909 46.7583C340.838 46.8033 340.753 46.825 340.668 46.8203C340.593 46.8187 340.518 46.7985 340.452 46.7616C340.378 46.7226 340.296 46.6743 340.208 46.6167C340.119 46.5593 340.017 46.4961 339.901 46.427C339.772 46.3521 339.636 46.2886 339.496 46.2373C339.322 46.1742 339.143 46.1258 338.961 46.0924C338.73 46.0507 338.495 46.0311 338.26 46.0337C337.834 46.0285 337.413 46.1095 337.021 46.2717C336.65 46.4274 336.32 46.6632 336.053 46.9617C335.771 47.2843 335.558 47.6598 335.425 48.0657C335.269 48.5461 335.194 49.0484 335.202 49.5529C335.193 50.062 335.275 50.5686 335.443 51.05C335.585 51.4568 335.807 51.832 336.095 52.1542C336.365 52.4496 336.696 52.6838 337.066 52.8406C337.445 53.0008 337.854 53.0819 338.267 53.0787C338.499 53.0802 338.731 53.0664 338.961 53.0374C339.156 53.0127 339.348 52.9688 339.534 52.9062C339.707 52.8471 339.873 52.7696 340.03 52.675C340.195 52.5737 340.351 52.457 340.494 52.3267C340.538 52.2869 340.587 52.2533 340.641 52.2267C340.69 52.2017 340.745 52.1887 340.801 52.1887Z" fill="white"/>
<path d="M348.476 46.3787C348.432 46.4607 348.372 46.5325 348.298 46.5892C348.229 46.6348 348.147 46.6577 348.064 46.6548C347.95 46.6495 347.84 46.6125 347.746 46.5479C347.632 46.4766 347.496 46.3972 347.338 46.3098C347.16 46.2142 346.975 46.1345 346.783 46.0717C346.54 45.9959 346.286 45.9598 346.032 45.9648C345.8 45.9607 345.569 45.9921 345.348 46.0578C345.168 46.1116 345.001 46.1995 344.856 46.3167C344.726 46.4234 344.624 46.5595 344.559 46.7135C344.492 46.8744 344.459 47.0468 344.461 47.2206C344.454 47.4335 344.524 47.6418 344.66 47.8071C344.807 47.9743 344.986 48.1105 345.187 48.2073C345.428 48.3264 345.677 48.4256 345.934 48.5039C346.214 48.5914 346.5 48.6846 346.793 48.7835C347.086 48.8821 347.373 48.9973 347.652 49.1285C347.925 49.2555 348.177 49.4231 348.399 49.6254C348.623 49.8327 348.802 50.0826 348.926 50.3601C349.067 50.6941 349.135 51.054 349.125 51.4158C349.128 51.8487 349.049 52.2783 348.891 52.6821C348.739 53.0689 348.506 53.4193 348.207 53.7102C347.892 54.0118 347.518 54.2466 347.107 54.4001C346.632 54.5755 346.127 54.661 345.62 54.6521C345.301 54.6523 344.983 54.6211 344.671 54.5589C344.364 54.4984 344.063 54.4094 343.774 54.2932C343.492 54.1807 343.222 54.0422 342.967 53.8793C342.724 53.725 342.499 53.5445 342.297 53.3411L342.848 52.4509C342.897 52.3849 342.958 52.3296 343.03 52.2888C343.101 52.2459 343.184 52.2233 343.267 52.2232C343.405 52.2308 343.536 52.2801 343.644 52.3646C343.779 52.4589 343.94 52.5636 344.126 52.6786C344.333 52.8037 344.552 52.9089 344.779 52.9927C345.067 53.0933 345.371 53.1412 345.676 53.134C346.123 53.1621 346.564 53.0284 346.919 52.7579C347.069 52.6218 347.186 52.4542 347.263 52.2674C347.339 52.0805 347.372 51.8792 347.359 51.6782C347.369 51.448 347.299 51.2213 347.16 51.0364C347.016 50.8619 346.836 50.7196 346.633 50.619C346.394 50.4986 346.144 50.4027 345.885 50.3326C345.606 50.2544 345.322 50.1693 345.033 50.0773C344.743 49.9845 344.459 49.8738 344.182 49.746C343.907 49.62 343.654 49.4498 343.435 49.2424C343.207 49.0223 343.028 48.758 342.908 48.4662C342.765 48.1 342.697 47.7094 342.709 47.3171C342.71 46.947 342.787 46.5809 342.934 46.2407C343.082 45.9005 343.297 45.5931 343.568 45.3368C343.866 45.058 344.217 44.84 344.601 44.6952C345.051 44.5269 345.53 44.4449 346.011 44.4536C346.573 44.4478 347.131 44.5413 347.659 44.7297C348.136 44.8982 348.573 45.1611 348.944 45.5024L348.476 46.3787Z" fill="white"/>
<path d="M356.037 46.0405V48.9939H359.822V50.4774H356.037V54.5416H354.152V44.5639H360.52V46.0405H356.037Z" fill="white"/>
<path d="M369.941 54.5416H368.244C368.104 54.5509 367.965 54.5209 367.841 54.4549C367.717 54.389 367.615 54.2899 367.546 54.169L365.424 50.9743C365.36 50.8689 365.27 50.7811 365.162 50.719C365.029 50.6609 364.885 50.6349 364.74 50.643H363.937V54.5416H362.059V44.564H365.137C365.732 44.5529 366.326 44.6237 366.901 44.7744C367.339 44.8889 367.75 45.0895 368.109 45.3643C368.413 45.6048 368.652 45.9167 368.803 46.2718C369.073 46.9473 369.099 47.6944 368.876 48.3866C368.779 48.68 368.633 48.9552 368.444 49.2009C368.248 49.4512 368.012 49.668 367.745 49.8426C367.454 50.0334 367.135 50.1799 366.8 50.2773C366.92 50.3462 367.032 50.4283 367.134 50.5222C367.241 50.6218 367.335 50.7343 367.414 50.857L369.941 54.5416ZM365.11 49.3113C365.423 49.3172 365.736 49.2729 366.035 49.1801C366.275 49.1057 366.496 48.9823 366.684 48.8179C366.852 48.6665 366.982 48.4788 367.065 48.2693C367.15 48.0469 367.193 47.8104 367.19 47.5723C367.203 47.3525 367.164 47.1327 367.077 46.9303C366.989 46.7279 366.854 46.5485 366.684 46.4063C366.23 46.1013 365.685 45.9578 365.137 45.9992H363.937V49.3113H365.11Z" fill="white"/>
<path d="M372.92 46.0405V48.8075H376.453V50.2359H372.92V53.0582H377.402V54.5416H371.035V44.5639H377.402V46.0405H372.92Z" fill="white"/>
<path d="M380.952 54.5416H379.066V44.5639H380.952V54.5416Z" fill="white"/>
<path d="M391.529 49.539V53.5756C391.035 53.9392 390.481 54.2158 389.891 54.3932C389.287 54.5692 388.66 54.6564 388.031 54.652C387.267 54.6625 386.509 54.5338 385.793 54.2724C385.156 54.039 384.574 53.6798 384.083 53.2168C383.607 52.7612 383.234 52.2108 382.99 51.6021C382.729 50.9501 382.598 50.2541 382.606 49.5529C382.598 48.8484 382.723 48.1485 382.976 47.4897C383.207 46.8804 383.568 46.3273 384.034 45.8678C384.5 45.4082 385.061 45.053 385.678 44.8261C386.374 44.5692 387.113 44.4428 387.856 44.4535C388.241 44.4515 388.625 44.4838 389.005 44.5503C389.342 44.6098 389.674 44.6986 389.996 44.8157C390.288 44.9223 390.568 45.06 390.83 45.2263C391.076 45.383 391.307 45.5608 391.522 45.7576L390.984 46.5995C390.949 46.6605 390.902 46.7138 390.846 46.7559C390.789 46.7981 390.725 46.8282 390.656 46.8444C390.58 46.8573 390.501 46.8551 390.426 46.838C390.35 46.8208 390.279 46.789 390.216 46.7444C390.062 46.6571 389.909 46.5697 389.755 46.4822C389.592 46.3905 389.42 46.3143 389.242 46.2545C389.035 46.1854 388.822 46.1323 388.607 46.0958C388.338 46.0518 388.066 46.031 387.793 46.0337C387.331 46.0271 386.871 46.1115 386.442 46.2821C386.05 46.4406 385.698 46.6834 385.413 46.9928C385.12 47.3155 384.897 47.6934 384.756 48.1037C384.597 48.5705 384.519 49.0604 384.526 49.5529C384.517 50.0727 384.601 50.5899 384.773 51.0812C384.923 51.5047 385.161 51.8925 385.472 52.2196C385.776 52.533 386.147 52.7758 386.558 52.9305C387.333 53.2057 388.173 53.2501 388.973 53.0582C389.269 52.9791 389.556 52.8728 389.832 52.7406V50.9328H388.561C388.51 50.9358 388.458 50.9285 388.41 50.9113C388.361 50.8941 388.316 50.8674 388.279 50.8327C388.246 50.8009 388.22 50.7628 388.202 50.7207C388.185 50.6785 388.176 50.6333 388.177 50.5878V49.539L391.529 49.539Z" fill="white"/>
<path d="M401.855 44.5639V54.5416H399.969V50.1807H395.229V54.5416H393.344V44.5639H395.229V48.8559H399.969V44.5639H401.855Z" fill="white"/>
<path d="M411.154 46.0889H408.109V54.5416H406.232V46.0889H403.188V44.5639H411.154V46.0889Z" fill="white"/>
<path d="M417.334 46.0405V48.9939H421.118V50.4774H417.334V54.5416H415.449V44.5639H421.817V46.0405H417.334Z" fill="white"/>
<path d="M432.889 49.5529C432.895 50.2469 432.771 50.936 432.522 51.5849C432.291 52.1881 431.938 52.7385 431.485 53.2031C431.028 53.6652 430.479 54.0282 429.872 54.2691C428.526 54.7797 427.036 54.7797 425.69 54.2691C425.083 54.0277 424.533 53.6647 424.074 53.2031C423.619 52.739 423.264 52.1885 423.03 51.5849C422.537 50.2741 422.537 48.8316 423.03 47.5207C423.264 46.9172 423.619 46.3667 424.074 45.9026C424.533 45.4409 425.083 45.078 425.69 44.8365C426.354 44.5746 427.063 44.4445 427.778 44.4536C428.265 44.4506 428.751 44.5097 429.223 44.6296C429.658 44.7401 430.076 44.9071 430.466 45.1263C430.84 45.3379 431.182 45.6004 431.482 45.9061C431.782 46.2121 432.039 46.5568 432.246 46.9308C432.459 47.3178 432.62 47.7307 432.724 48.159C432.836 48.6154 432.891 49.0834 432.889 49.5529ZM430.969 49.5529C430.976 49.0531 430.9 48.5554 430.745 48.0797C430.611 47.6717 430.395 47.2949 430.11 46.9721C429.834 46.6676 429.491 46.4293 429.108 46.2753C428.251 45.9532 427.305 45.9532 426.448 46.2753C426.064 46.4297 425.72 46.6679 425.442 46.9721C425.155 47.294 424.937 47.671 424.804 48.0797C424.506 49.0397 424.506 50.0659 424.804 51.026C424.937 51.4338 425.154 51.8098 425.442 52.13C425.721 52.4325 426.064 52.6694 426.448 52.8235C427.305 53.1456 428.251 53.1456 429.108 52.8235C429.49 52.6699 429.833 52.4328 430.11 52.13C430.396 51.809 430.612 51.4332 430.745 51.026C430.9 50.5503 430.976 50.0527 430.969 49.5529Z" fill="white"/>
<path d="M442.425 54.5416H440.729C440.589 54.5509 440.449 54.5209 440.325 54.4549C440.202 54.389 440.1 54.2899 440.031 54.169L437.908 50.9743C437.844 50.8689 437.754 50.7811 437.646 50.719C437.514 50.6609 437.369 50.6349 437.224 50.643H436.421V54.5416H434.543V44.564H437.622C438.217 44.5529 438.81 44.6237 439.385 44.7744C439.824 44.8888 440.234 45.0895 440.593 45.3643C440.897 45.6048 441.136 45.9167 441.288 46.2718C441.558 46.9473 441.584 47.6944 441.361 48.3866C441.264 48.68 441.117 48.9552 440.928 49.2009C440.733 49.4512 440.497 49.668 440.23 49.8426C439.938 50.0334 439.619 50.1799 439.284 50.2773C439.405 50.3462 439.517 50.4283 439.619 50.5222C439.726 50.6218 439.82 50.7343 439.898 50.857L442.425 54.5416ZM437.594 49.3113C437.908 49.3172 438.22 49.2729 438.519 49.1801C438.759 49.1057 438.98 48.9823 439.169 48.8179C439.336 48.6665 439.467 48.4788 439.549 48.2693C439.635 48.0469 439.677 47.8104 439.675 47.5723C439.688 47.3525 439.649 47.1327 439.561 46.9303C439.473 46.7279 439.339 46.5485 439.169 46.4063C438.715 46.1013 438.169 45.9578 437.622 45.9992H436.421V49.3113H437.594Z" fill="white"/>
<path d="M456.739 44.564L453.604 54.5416H451.908L449.701 47.7243C449.632 47.5258 449.576 47.3229 449.534 47.117C449.506 47.2321 449.478 47.3402 449.45 47.4414C449.422 47.5426 449.392 47.637 449.359 47.7243L447.132 54.5416H445.428L442.301 44.564H443.872C444.016 44.5588 444.159 44.5987 444.28 44.6779C444.387 44.7515 444.465 44.8601 444.5 44.9849L446.218 50.9535C446.254 51.1007 446.291 51.2605 446.326 51.4332C446.361 51.6057 446.397 51.7862 446.434 51.9747C446.471 51.7815 446.512 51.5998 446.556 51.4297C446.6 51.2595 446.648 51.1008 446.699 50.9535L448.682 44.9849C448.726 44.8698 448.802 44.7693 448.902 44.6951C449.016 44.6062 449.158 44.5597 449.303 44.564H449.855C449.997 44.5577 450.137 44.599 450.253 44.6812C450.356 44.7604 450.435 44.8652 450.484 44.9849L452.459 50.9535C452.567 51.277 452.656 51.6065 452.724 51.9403C452.785 51.5769 452.853 51.248 452.927 50.9535L454.644 44.9849C454.677 44.8637 454.753 44.7583 454.858 44.6881C454.976 44.6038 455.12 44.5602 455.266 44.564H456.739Z" fill="white"/>
<path d="M465.969 54.5416H464.516C464.374 54.548 464.233 54.5053 464.118 54.4208C464.017 54.3418 463.938 54.2385 463.888 54.1207L463.134 52.0851H458.952L458.198 54.1207C458.154 54.2351 458.079 54.3354 457.981 54.4104C457.869 54.4998 457.728 54.5463 457.584 54.5416H456.117L460.09 44.5639H462.003L465.969 54.5416ZM462.652 50.7742L461.424 47.4551C461.363 47.308 461.3 47.1333 461.235 46.9308C461.17 46.7283 461.104 46.5098 461.04 46.2753C460.979 46.5098 460.916 46.7294 460.851 46.9341C460.786 47.1389 460.723 47.3172 460.662 47.469L459.441 50.7742L462.652 50.7742Z" fill="white"/>
<path d="M474.902 54.5416H473.205C473.065 54.5509 472.925 54.5209 472.802 54.4549C472.678 54.389 472.576 54.2899 472.507 54.169L470.385 50.9743C470.32 50.8689 470.23 50.7811 470.123 50.719C469.99 50.6609 469.845 50.6349 469.701 50.643H468.897V54.5416H467.02V44.564H470.098C470.693 44.5529 471.287 44.6237 471.862 44.7744C472.3 44.8888 472.711 45.0895 473.07 45.3643C473.374 45.6048 473.613 45.9167 473.764 46.2718C474.034 46.9473 474.06 47.6944 473.837 48.3866C473.74 48.68 473.594 48.9552 473.405 49.2009C473.209 49.4512 472.973 49.668 472.706 49.8426C472.415 50.0334 472.096 50.1799 471.76 50.2773C471.881 50.3462 471.993 50.4283 472.095 50.5222C472.202 50.6218 472.296 50.7343 472.375 50.857L474.902 54.5416ZM470.071 49.3113C470.384 49.3172 470.697 49.2729 470.996 49.1801C471.236 49.1057 471.457 48.9823 471.645 48.8179C471.813 48.6665 471.943 48.4787 472.025 48.2693C472.111 48.0469 472.154 47.8104 472.151 47.5723C472.164 47.3525 472.125 47.1327 472.037 46.9303C471.95 46.7279 471.815 46.5485 471.645 46.4063C471.191 46.1013 470.646 45.9578 470.098 45.9992H468.897V49.3113H470.071Z" fill="white"/>
<path d="M484.961 49.5529C484.969 50.2417 484.843 50.9256 484.591 51.5677C484.36 52.1626 484.004 52.7025 483.546 53.1519C483.089 53.6014 482.541 53.9504 481.938 54.1759C481.269 54.427 480.559 54.5511 479.843 54.5417H475.996V44.564H479.843C480.559 44.5547 481.27 44.68 481.938 44.9333C482.541 45.1632 483.09 45.5131 483.55 45.9613C484.004 46.4103 484.358 46.9471 484.591 47.538C484.843 48.1802 484.969 48.8641 484.961 49.5529ZM483.034 49.5529C483.041 49.0534 482.967 48.5559 482.814 48.0797C482.683 47.6717 482.466 47.2956 482.178 46.9757C481.9 46.6733 481.556 46.4363 481.173 46.2822C480.75 46.1157 480.298 46.0336 479.843 46.0406H477.881V53.0651H479.843C480.298 53.0721 480.75 52.99 481.173 52.8235C481.557 52.6694 481.9 52.4325 482.178 52.13C482.466 51.8101 482.683 51.434 482.814 51.026C482.967 50.5498 483.041 50.0524 483.034 49.5529Z" fill="white"/>
<path d="M488.498 46.0405V48.8075H492.031V50.2359H488.498V53.0582H492.981V54.5416H486.613V44.5639H492.981V46.0405H488.498Z" fill="white"/>
<path d="M502.527 54.5416H500.83C500.69 54.5509 500.55 54.5209 500.427 54.4549C500.303 54.389 500.201 54.2899 500.132 54.169L498.01 50.9743C497.946 50.8689 497.855 50.7811 497.748 50.719C497.615 50.6609 497.471 50.6349 497.326 50.643H496.523V54.5416H494.645V44.564H497.723C498.318 44.5529 498.912 44.6237 499.487 44.7744C499.925 44.8889 500.336 45.0895 500.695 45.3643C500.999 45.6048 501.238 45.9167 501.389 46.2718C501.659 46.9473 501.685 47.6944 501.462 48.3866C501.365 48.68 501.219 48.9552 501.03 49.2009C500.834 49.4512 500.598 49.668 500.331 49.8426C500.04 50.0334 499.721 50.1799 499.386 50.2773C499.506 50.3462 499.618 50.4283 499.72 50.5222C499.827 50.6218 499.921 50.7343 500 50.857L502.527 54.5416ZM497.696 49.3113C498.009 49.3172 498.322 49.2729 498.621 49.1801C498.861 49.1057 499.082 48.9823 499.27 48.8179C499.438 48.6665 499.568 48.4787 499.651 48.2693C499.736 48.0469 499.779 47.8104 499.776 47.5723C499.789 47.3525 499.75 47.1327 499.663 46.9303C499.575 46.7279 499.44 46.5485 499.27 46.4063C498.816 46.1013 498.271 45.9578 497.723 45.9992H496.523V49.3113H497.696Z" fill="white"/>
<path d="M508.999 46.3787C508.956 46.4607 508.895 46.5325 508.821 46.5892C508.752 46.6348 508.67 46.6577 508.587 46.6548C508.473 46.6496 508.363 46.6125 508.27 46.5479C508.156 46.4766 508.019 46.3973 507.861 46.3098C507.684 46.2142 507.498 46.1346 507.306 46.0717C507.063 45.9959 506.81 45.9598 506.555 45.9648C506.324 45.9607 506.093 45.9921 505.871 46.0578C505.692 46.1116 505.524 46.1996 505.379 46.3167C505.249 46.4234 505.147 46.5595 505.082 46.7135C505.016 46.8744 504.982 47.0468 504.984 47.2206C504.977 47.4335 505.048 47.6418 505.184 47.8072C505.33 47.9743 505.509 48.1105 505.711 48.2073C505.951 48.3264 506.201 48.4256 506.458 48.5039C506.737 48.5915 507.023 48.6847 507.316 48.7835C507.609 48.8822 507.896 48.9973 508.175 49.1285C508.448 49.2555 508.7 49.4231 508.922 49.6254C509.146 49.8327 509.326 50.0827 509.45 50.3602C509.591 50.6941 509.659 51.054 509.648 51.4158C509.652 51.8487 509.572 52.2783 509.415 52.6821C509.263 53.0689 509.03 53.4193 508.73 53.7102C508.415 54.0118 508.041 54.2466 507.631 54.4001C507.155 54.5755 506.651 54.661 506.144 54.6521C505.825 54.6523 505.507 54.6211 505.194 54.5589C504.887 54.4984 504.587 54.4095 504.297 54.2932C504.015 54.1808 503.745 54.0422 503.49 53.8794C503.247 53.7251 503.023 53.5445 502.82 53.3412L503.372 52.4509C503.42 52.3849 503.482 52.3296 503.553 52.2888C503.625 52.246 503.707 52.2233 503.791 52.2232C503.928 52.2308 504.06 52.2801 504.168 52.3646C504.302 52.459 504.463 52.5636 504.65 52.6786C504.856 52.8038 505.075 52.9089 505.302 52.9927C505.59 53.0933 505.894 53.1412 506.2 53.134C506.646 53.1622 507.088 53.0284 507.442 52.7579C507.592 52.6218 507.71 52.4542 507.786 52.2674C507.862 52.0805 507.895 51.8792 507.882 51.6782C507.892 51.448 507.822 51.2213 507.683 51.0364C507.539 50.8619 507.36 50.7196 507.156 50.619C506.917 50.4987 506.667 50.4027 506.409 50.3326C506.129 50.2545 505.845 50.1694 505.557 50.0773C505.266 49.9845 504.982 49.8739 504.705 49.746C504.43 49.62 504.178 49.4498 503.958 49.2425C503.73 49.0223 503.551 48.758 503.431 48.4662C503.288 48.1 503.221 47.7094 503.232 47.3171C503.233 46.947 503.31 46.5809 503.458 46.2407C503.605 45.9005 503.821 45.5931 504.091 45.3368C504.389 45.058 504.741 44.84 505.124 44.6952C505.575 44.5269 506.053 44.4449 506.535 44.4536C507.096 44.4478 507.654 44.5413 508.182 44.7297C508.659 44.8982 509.096 45.1611 509.467 45.5024L508.999 46.3787Z" fill="white"/>
<path d="M265.219 46.292H169.371V45.0891H265.219V46.292ZM265.219 47.7102H184.765V48.9131H265.219V47.7102ZM265.219 50.3314H201.485V51.5343H265.219V50.3314ZM610.59 45.0891H514.742V46.292H610.59L610.59 45.0891ZM595.196 47.7102H514.742V48.9131H595.196L595.196 47.7102ZM578.475 50.3314H514.742V51.5343H578.475L578.475 50.3314Z" fill="white"/>
</g>
<defs>
<clipPath id="clip0_1151_1234">
<rect width="611" height="60" fill="white"/>
</clipPath>
</defs>
</svg>
