<svg width="41" height="33" viewBox="0 0 41 33" fill="none" xmlns="http://www.w3.org/2000/svg">
<path fill-rule="evenodd" clip-rule="evenodd" d="M35.7 32.4881H4.48706V27.8885C4.65082 22.5334 9.36715 18.4595 12.2166 13.8271V9.75324H16.9657V12.6772H23.3524V9.75324H28.1015V13.8271C31.1802 18.788 35.7 22.0077 35.7 27.8228V32.4881ZM40.1216 13.8271C40.1216 13.1043 40.2526 12.3815 40.1543 11.5931C36.6498 12.7429 33.2436 12.4144 29.9028 10.5746C29.7718 11.823 29.9683 12.9401 30.4269 13.9914C31.606 16.6197 40.0233 17.5067 40.1216 13.8271ZM0.0982569 13.8271C0.0982569 13.1043 -0.0327523 12.3815 0.0655046 11.5931C3.57 12.7429 6.97624 12.4144 10.317 10.5746C10.448 11.823 10.2515 12.9401 9.79293 13.9914C8.61385 16.6197 0.163761 17.5067 0.0982569 13.8271ZM0 10.476C2.8167 -2.69835 37.7961 -4.27533 40.2526 10.5089C36.8463 11.4616 33.3746 10.9031 29.9028 9.32614C30.0011 8.63621 29.8373 8.0777 29.4771 7.61775C27.4137 5.0223 12.6424 4.92373 10.7428 7.71631C10.448 8.14341 10.317 8.66907 10.3497 9.26044C6.91073 11.3631 3.43899 11.8559 0 10.476ZM15.4591 15.6669C16.2451 15.6669 16.8674 16.2912 16.8674 17.0796C16.8674 17.8681 16.2451 18.4924 15.4591 18.4924C14.673 18.4924 14.0507 17.8681 14.0507 17.0796C14.0835 16.324 14.7058 15.6669 15.4591 15.6669ZM24.4987 23.5518C25.2848 23.5518 25.9071 24.1761 25.9071 24.9646C25.9071 25.753 25.2848 26.3773 24.4987 26.3773C23.7127 26.3773 23.0904 25.753 23.0904 24.9646C23.0904 24.2089 23.7127 23.5518 24.4987 23.5518ZM19.9789 23.5518C20.7649 23.5518 21.3872 24.1761 21.3872 24.9646C21.3872 25.753 20.7649 26.3773 19.9789 26.3773C19.1928 26.3773 18.5705 25.753 18.5705 24.9646C18.5705 24.2089 19.1928 23.5518 19.9789 23.5518ZM15.4591 23.5518C16.2451 23.5518 16.8674 24.1761 16.8674 24.9646C16.8674 25.753 16.2451 26.3773 15.4591 26.3773C14.673 26.3773 14.0507 25.753 14.0507 24.9646C14.0835 24.2089 14.7058 23.5518 15.4591 23.5518ZM24.4987 19.6094C25.2848 19.6094 25.9071 20.2336 25.9071 21.0221C25.9071 21.8106 25.2848 22.4348 24.4987 22.4348C23.7127 22.4348 23.0904 21.8106 23.0904 21.0221C23.0904 20.2665 23.7127 19.6094 24.4987 19.6094ZM19.9789 19.6094C20.7649 19.6094 21.3872 20.2336 21.3872 21.0221C21.3872 21.8106 20.7649 22.4348 19.9789 22.4348C19.1928 22.4348 18.5705 21.8106 18.5705 21.0221C18.5705 20.2665 19.1928 19.6094 19.9789 19.6094ZM15.4591 19.6094C16.2451 19.6094 16.8674 20.2336 16.8674 21.0221C16.8674 21.8106 16.2451 22.4348 15.4591 22.4348C14.673 22.4348 14.0507 21.8106 14.0507 21.0221C14.0835 20.2665 14.7058 19.6094 15.4591 19.6094ZM24.4987 15.6669C25.2848 15.6669 25.9071 16.2912 25.9071 17.0796C25.9071 17.8681 25.2848 18.4924 24.4987 18.4924C23.7127 18.4924 23.0904 17.8681 23.0904 17.0796C23.0904 16.324 23.7127 15.6669 24.4987 15.6669ZM19.9789 15.6669C20.7649 15.6669 21.3872 16.2912 21.3872 17.0796C21.3872 17.8681 20.7649 18.4924 19.9789 18.4924C19.1928 18.4924 18.5705 17.8681 18.5705 17.0796C18.5705 16.324 19.1928 15.6669 19.9789 15.6669Z" fill="black"/>
</svg>
