<svg width="48" height="48" viewBox="0 0 48 48" fill="none" xmlns="http://www.w3.org/2000/svg">
<path fill-rule="evenodd" clip-rule="evenodd" d="M7.23855 40.5155C7.24236 38.9788 8.11554 37.4765 9.53778 35.795L1.31319 30.5941C0.79462 30.3691 0.806059 30.0527 1.10728 29.679L2.84981 28.1919C3.16629 27.9975 3.50183 27.9136 3.86407 28.0127L14.0142 29.7286L22.4714 20.5698L2.7278 7.21293C2.2283 6.91933 2.18636 6.5876 2.70111 6.20249L5.5494 3.92995L31.287 11.1632L38.8901 3.0339C41.441 0.82619 43.9194 -0.161372 45.8221 0.307625C46.8706 0.566907 47.2405 0.879571 47.5646 1.86332C48.1937 3.79269 47.2176 6.38551 44.9108 9.05459L36.7815 16.6577L44.0147 42.3953L41.7422 45.2436C41.3571 45.7545 41.0253 45.7126 40.7317 45.2169L27.3711 25.4771L18.2123 33.9305L19.9281 44.0806C20.0273 44.439 19.9472 44.7746 19.7489 45.0949L18.2619 46.8374C17.892 47.1386 17.5717 47.1501 17.3468 46.6315L12.1459 38.4069C10.4567 39.8329 8.95439 40.7061 7.41014 40.7061C7.26906 40.7023 7.23855 40.6527 7.23855 40.5155Z" fill="#277EFF"/>
</svg>
