<svg width="77" height="84" viewBox="0 0 77 84" fill="none" xmlns="http://www.w3.org/2000/svg">
<path fill-rule="evenodd" clip-rule="evenodd" d="M75.9974 12.2154C65.1022 13.2149 52.4148 8.98712 38.3663 0.0655518C26.2111 9.52741 13.6719 12.3032 0.883393 11.6278C-0.181194 52.3658 14.1975 74.1598 38.5145 83.0543C63.694 73.552 77.8975 50.7787 75.9974 12.2154ZM71.6841 15.5788C62.049 16.4636 50.8101 12.7288 38.3787 4.82703C27.6251 13.2083 16.521 15.6599 5.20136 15.0656C4.25806 51.1233 16.9859 70.4117 38.5068 78.2864C60.789 69.8714 73.3686 49.7117 71.6841 15.5788Z" fill="black"/>
<path fill-rule="evenodd" clip-rule="evenodd" d="M64.3812 21.5488C56.956 22.2242 48.3045 19.3471 38.7233 13.2621L38.4874 13.4309L38.2651 13.2621C28.6905 19.3471 20.0324 22.2309 12.6072 21.5488C11.3135 47.8475 21.0026 63.3741 38.1708 69.8576L38.4942 69.7361L38.8176 69.8576C55.9925 63.3741 65.6748 47.8475 64.3812 21.5488ZM29.7437 39.3582L24.7105 39.4257L24.2928 40.7629C26.5634 42.323 28.5107 44.16 30.1817 46.2266C31.8527 48.2933 33.2542 50.603 34.4266 53.1221L35.0599 54.4864L35.7539 53.1491C37.9774 48.8538 40.4704 44.6801 43.2667 40.6279C46.0562 36.5892 48.1853 33.6311 51.588 29.8423L52.6997 28.6131H47.2016L46.7097 28.8022C44.2302 31.0377 42.8354 32.5168 40.6052 35.2115C38.5704 37.6698 36.6433 40.351 34.8376 43.2618C34.2514 42.6134 33.6382 42.0191 32.9914 41.4721C32.0953 40.7089 31.1385 40.0403 30.121 39.4527L29.7437 39.3582Z" fill="black"/>
</svg>
